<svg xmlns="http://www.w3.org/2000/svg" xmlns:xlink="http://www.w3.org/1999/xlink" contentStyleType="text/css" data-diagram-type="DESCRIPTION" height="660px" preserveAspectRatio="none" style="width:1048px;height:660px;background:#FFFFFF;" version="1.1" viewBox="0 0 1048 660" width="1048px" zoomAndPan="magnify"><?plantuml 1.2026.6?><defs/><g><!--cluster Vehicle Maintenance Tracking System--><g class="cluster" data-qualified-name="Vehicle Maintenance Tracking System" data-source-line="52" id="ent0013"><rect fill="#FCFCFC" height="612" rx="2.5" ry="2.5" style="stroke:#888888;stroke-width:1;" width="461" x="573" y="7"/><text fill="#000000" font-family="Helvetica" font-size="13" font-weight="700" lengthAdjust="spacing" textLength="246.2202" x="680.3899" y="22.897">Vehicle Maintenance Tracking System</text></g><!--entity UC_LOGIN--><g class="entity" data-qualified-name="Vehicle Maintenance Tracking System.UC_LOGIN" data-source-line="53" id="ent0014"><ellipse cx="686.9741" cy="455.02" fill="#FFFFFF" rx="29.4741" ry="15.52" style="stroke:#555555;stroke-width:0.5;"/><text fill="#222222" font-family="Helvetica" font-size="13" lengthAdjust="spacing" textLength="37.44" x="668.2541" y="460.3731">Log in</text></g><!--entity UC_VEHICLE--><g class="entity" data-qualified-name="Vehicle Maintenance Tracking System.UC_VEHICLE" data-source-line="55" id="ent0015"><ellipse cx="686.8069" cy="200.7644" fill="#FFFFFF" rx="64.3069" ry="25.7644" style="stroke:#555555;stroke-width:0.5;"/><text fill="#222222" font-family="Helvetica" font-size="13" lengthAdjust="spacing" textLength="95.3681" x="639.1228" y="200.6625">Manage vehicle</text><text fill="#222222" font-family="Helvetica" font-size="13" lengthAdjust="spacing" textLength="45.968" x="663.8228" y="218.3685">profiles</text></g><!--entity UC_SCHEDULE--><g class="entity" data-qualified-name="Vehicle Maintenance Tracking System.UC_SCHEDULE" data-source-line="56" id="ent0016"><ellipse cx="686.7786" cy="69.0877" fill="#FFFFFF" rx="87.7786" ry="25.5877" style="stroke:#555555;stroke-width:0.5;"/><text fill="#222222" font-family="Helvetica" font-size="13" lengthAdjust="spacing" textLength="132.9121" x="620.3226" y="69.2687">Manage maintenance</text><text fill="#222222" font-family="Helvetica" font-size="13" lengthAdjust="spacing" textLength="54.548" x="659.5046" y="86.9747">schedule</text></g><!--entity UC_LOGEVENT--><g class="entity" data-qualified-name="Vehicle Maintenance Tracking System.UC_LOGEVENT" data-source-line="58" id="ent0017"><ellipse cx="687.1162" cy="576.8031" fill="#FFFFFF" rx="47.1162" ry="25.8031" style="stroke:#555555;stroke-width:0.5;"/><text fill="#222222" font-family="Helvetica" font-size="13" lengthAdjust="spacing" textLength="68.5101" x="652.8612" y="576.6397">Log service</text><text fill="#222222" font-family="Helvetica" font-size="13" lengthAdjust="spacing" textLength="33.995" x="670.1187" y="594.3458">event</text></g><!--entity UC_HISTORY--><g class="entity" data-qualified-name="Vehicle Maintenance Tracking System.UC_HISTORY" data-source-line="59" id="ent0018"><ellipse cx="966.437" cy="455.0105" fill="#FFFFFF" rx="51.437" ry="26.0105" style="stroke:#555555;stroke-width:0.5;"/><text fill="#222222" font-family="Helvetica" font-size="13" lengthAdjust="spacing" textLength="74.542" x="929.166" y="454.5202">View service</text><text fill="#222222" font-family="Helvetica" font-size="13" lengthAdjust="spacing" textLength="42.172" x="945.351" y="472.2263">history</text></g><!--entity UC_OVERDUE--><g class="entity" data-qualified-name="Vehicle Maintenance Tracking System.UC_OVERDUE" data-source-line="61" id="ent0019"><ellipse cx="686.9717" cy="333.2187" fill="#FFFFFF" rx="97.9717" ry="26.2187" style="stroke:#555555;stroke-width:0.5;"/><text fill="#222222" font-family="Helvetica" font-size="13" lengthAdjust="spacing" textLength="90.8311" x="641.5562" y="327.0329">View overdue /</text><text fill="#222222" font-family="Helvetica" font-size="13" lengthAdjust="spacing" textLength="144.8461" x="614.5486" y="344.7389">upcoming maintenance</text></g><!--entity coordinator--><g class="entity" data-qualified-name="coordinator" data-source-line="32" id="ent0001"><ellipse cx="395.378" cy="170.5" fill="#FFFFFF" rx="8" ry="8" style="stroke:#333333;stroke-width:0.5;"/><path d="M395.378,178.5 L395.378,205.5 M382.378,186.5 L408.378,186.5 M395.378,205.5 L382.378,220.5 M395.378,205.5 L408.378,220.5" fill="none" style="stroke:#333333;stroke-width:0.5;"/><text fill="#000000" font-family="Helvetica" font-size="13" lengthAdjust="spacing" textLength="106.7561" x="342" y="235.897">Fleet Coordinator</text></g><!--entity mechanic--><g class="entity" data-qualified-name="mechanic" data-source-line="33" id="ent0002"><ellipse cx="395.668" cy="561" fill="#FFFFFF" rx="8" ry="8" style="stroke:#333333;stroke-width:0.5;"/><path d="M395.668,569 L395.668,596 M382.668,577 L408.668,577 M395.668,596 L382.668,611 M395.668,596 L408.668,611" fill="none" style="stroke:#333333;stroke-width:0.5;"/><text fill="#000000" font-family="Helvetica" font-size="13" lengthAdjust="spacing" textLength="66.5341" x="344.5" y="626.397">Mechanic /</text><text fill="#000000" font-family="Helvetica" font-size="13" lengthAdjust="spacing" textLength="102.3361" x="344.5" y="644.103">Service Recorder</text></g><!--entity manager--><g class="entity" data-qualified-name="manager" data-source-line="34" id="ent0003"><ellipse cx="395.4011" cy="402.5" fill="#FFFFFF" rx="8" ry="8" style="stroke:#333333;stroke-width:0.5;"/><path d="M395.4011,410.5 L395.4011,437.5 M382.4011,418.5 L408.4011,418.5 M395.4011,437.5 L382.4011,452.5 M395.4011,437.5 L408.4011,452.5" fill="none" style="stroke:#333333;stroke-width:0.5;"/><text fill="#000000" font-family="Helvetica" font-size="13" lengthAdjust="spacing" textLength="126.8021" x="332" y="467.897">Operations Manager</text></g><g class="entity" data-qualified-name="GMN4" data-source-line="37" id="ent0005"><path d="M6.5,169.5 L6.5,232.618 A0,0 0 0 0 6.5,232.618 L201.6352,232.618 A0,0 0 0 0 201.6352,232.618 L201.6352,205 L341.62,201 L201.6352,197 L201.6352,179.5 L191.6352,169.5 L6.5,169.5 A0,0 0 0 0 6.5,169.5" fill="#FEFFDD" style="stroke:#181818;stroke-width:0.5;"/><path d="M191.6352,169.5 L191.6352,179.5 L201.6352,179.5 L191.6352,169.5" fill="#FEFFDD" style="stroke:#181818;stroke-width:0.5;"/><text fill="#000000" font-family="Helvetica" font-size="13" lengthAdjust="spacing" textLength="159.2242" x="12.5" y="188.397">Registers vehicles, sets up</text><text fill="#000000" font-family="Helvetica" font-size="13" lengthAdjust="spacing" textLength="174.1352" x="12.5" y="206.103">maintenance schedules, and</text><text fill="#000000" font-family="Helvetica" font-size="13" lengthAdjust="spacing" textLength="142.8571" x="12.5" y="223.809">checks the overdue list.</text></g><g class="entity" data-qualified-name="GMN7" data-source-line="43" id="ent0008"><path d="M12,577.5 L12,622.912 A0,0 0 0 0 12,622.912 L195.6301,622.912 A0,0 0 0 0 195.6301,622.912 L195.6301,604 L344.14,600 L195.6301,596 L195.6301,587.5 L185.6301,577.5 L12,577.5 A0,0 0 0 0 12,577.5" fill="#FEFFDD" style="stroke:#181818;stroke-width:0.5;"/><path d="M185.6301,577.5 L185.6301,587.5 L195.6301,587.5 L185.6301,577.5" fill="#FEFFDD" style="stroke:#181818;stroke-width:0.5;"/><text fill="#000000" font-family="Helvetica" font-size="13" lengthAdjust="spacing" textLength="147.8751" x="18" y="596.397">Logs each service event:</text><text fill="#000000" font-family="Helvetica" font-size="13" lengthAdjust="spacing" textLength="162.6301" x="18" y="614.103">what was done, and when.</text></g><g class="entity" data-qualified-name="GMN10" data-source-line="48" id="ent0011"><path d="M6,410.5 L6,455.912 A0,0 0 0 0 6,455.912 L202.3181,455.912 A0,0 0 0 0 202.3181,455.912 L202.3181,437 L331.95,433 L202.3181,429 L202.3181,420.5 L192.3181,410.5 L6,410.5 A0,0 0 0 0 6,410.5" fill="#FEFFDD" style="stroke:#181818;stroke-width:0.5;"/><path d="M192.3181,410.5 L192.3181,420.5 L202.3181,420.5 L192.3181,410.5" fill="#FEFFDD" style="stroke:#181818;stroke-width:0.5;"/><text fill="#000000" font-family="Helvetica" font-size="13" lengthAdjust="spacing" textLength="175.3181" x="12" y="429.397">Reviews history and overdue</text><text fill="#000000" font-family="Helvetica" font-size="13" lengthAdjust="spacing" textLength="153.6991" x="12" y="447.103">status to make decisions.</text></g><!--link coordinator to UC_LOGIN--><g class="link" data-entity-1="ent0001" data-entity-2="ent0014" data-link-type="association" data-source-line="65" id="lnk20"><path d="M449.25,236.75 C476.12,236.75 503,236.75 503,236.75 C503,236.75 503,447.25 503,447.25 C503,447.25 610.86,447.25 661.42,447.25" fill="none" id="coordinator-UC_LOGIN" style="stroke:#444444;stroke-width:1;"/></g><!--link coordinator to UC_VEHICLE--><g class="link" data-entity-1="ent0001" data-entity-2="ent0015" data-link-type="association" data-source-line="66" id="lnk21"><path d="M449.31,201 C498.16,201 570.32,201 622.31,201" fill="none" id="coordinator-UC_VEHICLE" style="stroke:#444444;stroke-width:1;"/></g><!--link coordinator to UC_SCHEDULE--><g class="link" data-entity-1="ent0001" data-entity-2="ent0016" data-link-type="association" data-source-line="67" id="lnk22"><path d="M449.05,168.5 C512.87,168.5 611,168.5 611,168.5 C611,168.5 611,108.98 611,82.01" fill="none" id="coordinator-UC_SCHEDULE" style="stroke:#444444;stroke-width:1;"/></g><!--link coordinator to UC_OVERDUE--><g class="link" data-entity-1="ent0001" data-entity-2="ent0019" data-link-type="association" data-source-line="68" id="lnk23"><path d="M449.22,233.5 C508,233.5 594,233.5 594,233.5 C594,233.5 594,300.45 594,324.52" fill="none" id="coordinator-UC_OVERDUE" style="stroke:#444444;stroke-width:1;"/></g><!--link coordinator to UC_HISTORY--><g class="link" data-entity-1="ent0001" data-entity-2="ent0018" data-link-type="association" data-source-line="69" id="lnk24"><path d="M449.01,230.25 C591.08,230.25 967,230.25 967,230.25 C967,230.25 967,369.49 967,428.78" fill="none" id="coordinator-UC_HISTORY" style="stroke:#444444;stroke-width:1;"/></g><!--link mechanic to UC_LOGIN--><g class="link" data-entity-1="ent0002" data-entity-2="ent0014" data-link-type="association" data-source-line="71" id="lnk25"><path d="M446.87,569.33 C490.47,569.33 546,569.33 546,569.33 C546,569.33 546,462.75 546,462.75 C546,462.75 620.43,462.75 661.14,462.75" fill="none" id="mechanic-UC_LOGIN" style="stroke:#444444;stroke-width:1;"/></g><!--link mechanic to UC_LOGEVENT--><g class="link" data-entity-1="ent0002" data-entity-2="ent0017" data-link-type="association" data-source-line="72" id="lnk26"><path d="M446.61,586.17 C502.13,586.17 589.92,586.17 642.64,586.17" fill="none" id="mechanic-UC_LOGEVENT" style="stroke:#444444;stroke-width:1;"/></g><!--link mechanic to UC_HISTORY--><g class="link" data-entity-1="ent0002" data-entity-2="ent0018" data-link-type="association" data-source-line="73" id="lnk27"><path d="M396,552.25 C396,517.5 396,476.5 396,476.5 C396,476.5 821.17,476.5 937.42,476.5" fill="none" id="mechanic-UC_HISTORY" style="stroke:#444444;stroke-width:1;"/></g><!--link manager to UC_LOGIN--><g class="link" data-entity-1="ent0003" data-entity-2="ent0014" data-link-type="association" data-source-line="75" id="lnk28"><path d="M459.11,455 C520.59,455 611.02,455 657.31,455" fill="none" id="manager-UC_LOGIN" style="stroke:#444444;stroke-width:1;"/></g><!--link manager to UC_HISTORY--><g class="link" data-entity-1="ent0003" data-entity-2="ent0018" data-link-type="association" data-source-line="76" id="lnk29"><path d="M459.06,436 C579.41,436 836.91,436 931.07,436" fill="none" id="manager-UC_HISTORY" style="stroke:#444444;stroke-width:1;"/></g><!--link manager to UC_OVERDUE--><g class="link" data-entity-1="ent0003" data-entity-2="ent0019" data-link-type="association" data-source-line="77" id="lnk30"><path d="M454,393.76 C454,365.75 454,333 454,333 C454,333 525.19,333 588.86,333" fill="none" id="manager-UC_OVERDUE" style="stroke:#444444;stroke-width:1;"/></g><!--link UC_OVERDUE to UC_HISTORY--><g class="link" data-entity-1="ent0019" data-entity-2="ent0018" data-link-type="dependency" data-source-line="80" id="lnk31"><path d="M760,350.79 C760,379.41 760,432.5 760,432.5 C760,432.5 879.78,432.5 935.35,432.5" fill="none" id="UC_OVERDUE-to-UC_HISTORY" style="stroke:#444444;stroke-width:1;stroke-dasharray:7,7;"/><polygon fill="#444444" points="940.35,432.5,931.35,428.5,935.35,432.5,931.35,436.5,940.35,432.5" style="stroke:#444444;stroke-width:1;stroke-linejoin:miter;stroke-miterlimit:10;"/><text fill="#000000" font-family="Helvetica" font-size="13" lengthAdjust="spacing" textLength="57.5771" x="751.32" y="447.397">&#171;include&#187;</text></g><?plantuml-src ZLHjQoCt4Fw-ls9mFrmBZTFsMZZC4MXzJXF8IuaJGo4G9j9uL-TTQP6qDcuft8-uNzXVqf5sPSjnhgqCPdTUdfbvzCo-WGT7893_fCBIOWD_V_eC2wgKg0ckKMbF6hKWkBSeLagNCDywJmryVRtuxPlY3SnDPzbjbk1jvojO6WlI27SgoQbIdtQEda81zpHK6BjroNbtL98cYvvWetmrOHF0HrmZd7n42ssDsdTDFGul9vvp_WErvU2Yg6dfmHkmggmypsH9U6LqKJZklSKmOAqq-MtBBLjVcSoX3ODJ2---oumMzIeOlt-RMrs5qcm26qki7MMUPsQfjARJScfgfkAhytYo24bBx6f_RhI_mORWWkerUINmzPYv-eEuUkRysLgp6T1_Z2Tpel1i_xC0-CLOINQ8UnjFi7wXlxyo32OtIk88vQTu_WK58BGys7w8vm0vN0Vgidu5-rqyhs9Fms_0dlijPp-RMZ8mQ-Q43xHMDMYt_V1k0exfNC5IbPqbzosOpZib2Nn5u7hrFWVya1BoYvwqqNbDv65gk2sbaKqZG0TY_vu2hqbKg9M0qqSz9xjMl01t9E8uCQSP0bB2RHkKpa9ql5CQonJMFnU5Dhm6KRkyHtb127kYk6NhODrl9G_ao3leMlOssOOwKP7iOW1goKv-5oiNnpPhihBZ6emrBaXB22LV5Dvr3N1bIWU4ek9Q_Noq9kqdxDfKw673tKkZAPPY4-alemv3Xb7MYZOEAcx2XElYXA4nzZgFldDXUHjSyVU8X7A1iHnuhv_H__X6ZQBAaff7F1Ce7Ob_c3vTtVvwULFa_lvc4isFkhLcgPZEbB6ONLnEhsQlf6ItyAZJDQIq-VHYzk61yrxsCZ3xg2ErML-pnUpcFezUC6txy86-b71nER-_lVkzE4f8TyuYxLfXca1CrcdAlrtCxZuypB9rGkUCK8DUuu9aacJ3dhvZUoBfsBFZuTYLMZZsx8PBsZmeVspigNjXtuFqKZp4EB2bq4DhwYyHfBIeEqcJ7SM3Th7UuDQ19fBzsjMcB4dkTYW9FtAwnuNn-2mh3XDu_tueSNPM_0C0?></g></svg>